<?xml version="1.0" encoding="UTF-8"?>
<svg width="200px" height="200px" viewBox="0 0 200 200" version="1.1" xmlns="http://www.w3.org/2000/svg" xmlns:xlink="http://www.w3.org/1999/xlink">
    <!-- Generator: Sketch 44.1 (41455) - http://www.bohemiancoding.com/sketch -->
    <title>Untitled</title>
    <desc>Created with Sketch.</desc>
    <defs>
        <circle id="path-1" cx="100" cy="100" r="100"></circle>
        <linearGradient x1="0%" y1="50%" x2="100%" y2="50%" id="linearGradient-3">
            <stop stop-color="#000000" offset="0%"></stop>
            <stop stop-color="#000000" stop-opacity="0.439990942" offset="100%"></stop>
        </linearGradient>
    </defs>
    <g id="Page-1" stroke="none" stroke-width="1" fill="none" fill-rule="evenodd">
        <g id="Menu-Plus-Logo">
            <mask id="mask-2" fill="white">
                <use xlink:href="#path-1"></use>
            </mask>
            <use id="Oval" fill="#E91E63" xlink:href="#path-1"></use>
            <path d="M99.8215398,348.636364 C183.067768,348.636364 250.552171,292.977218 250.552171,224.318182 C250.552171,155.659146 183.067768,100 99.8215398,100 C16.5753111,100 -50.9090909,155.659146 -50.9090909,224.318182 C-50.9090909,292.977218 16.5753111,348.636364 99.8215398,348.636364 Z" id="Oval" fill="#FFC107" mask="url(#mask-2)"></path>
            <g id="Group" mask="url(#mask-2)">
                <g transform="translate(56.363636, 35.000000)">
                    <polygon id="Rectangle" fill-opacity="0.0900000036" fill="url(#linearGradient-3)" transform="translate(95.108350, 95.102997) rotate(30.000000) translate(-95.108350, -95.102997) " points="36.0790058 24.3941022 133.892782 37.9508484 154.137695 157.478412 36.0790058 165.811891"></polygon>
                    <rect id="Menu" fill="#F5F5F5" x="0" y="0" width="87.2727273" height="130.454545" rx="20.4545455"></rect>
                    <g id="Menu-Item" stroke-width="1" fill="none" transform="translate(13.636364, 23.181818)">
                        <rect id="Rectangle-2" fill="#A0A0A0" x="0" y="0" width="60" height="10" rx="5"></rect>
                        <rect id="Rectangle-2-Copy" fill="#A0A0A0" x="0" y="25" width="48.1818182" height="10" rx="5"></rect>
                        <rect id="Rectangle-2-Copy-2" fill="#A0A0A0" x="0" y="50" width="60" height="10" rx="5"></rect>
                        <rect id="Rectangle-2-Copy-3" fill="#A0A0A0" x="0" y="75" width="40.4545455" height="10" rx="5"></rect>
                    </g>
                </g>
            </g>
        </g>
    </g>
</svg>